<?xml version="1.0" encoding="UTF-8" standalone="no"?>
<svg
   version="1.1"
   id="Layer_1"
   x="0px"
   y="0px"
   viewBox="0 0 64.000001 64"
   xml:space="preserve"
   width="64"
   height="64"
   xmlns="http://www.w3.org/2000/svg"
   xmlns:svg="http://www.w3.org/2000/svg"><defs
     id="defs1" /><style
     type="text/css"
     id="style1">.st0{fill-rule:evenodd;clip-rule:evenodd;}</style><circle
     style="fill:#ffd42a;stroke:none;stroke-width:2"
     id="path3"
     cx="49.263096"
     cy="48.524677"
     r="9.7075424" /><path
     id="path2"
     style="fill:#ffd42a;stroke:none;stroke-width:2"
     d="M 26.972656 2.9492188 C 22.999907 2.9945024 19.009774 3.2761233 15.027344 3.4472656 L 2.5917969 9.4824219 L 3.9101562 15.59375 L 3.9101562 53.5 C 3.043342 59.094031 22.42158 62.629195 39.248047 61.349609 L 39.412109 60.947266 A 15.928753 15.928753 0 0 1 33.119141 48.314453 A 15.928753 15.928753 0 0 1 49.046875 32.384766 A 15.928753 15.928753 0 0 1 51.070312 32.517578 L 51.234375 32.119141 L 51.234375 10.554688 L 46.564453 6.265625 C 40.165591 3.4500859 33.593904 2.8737459 26.972656 2.9492188 z " /><g
     id="g1"
     transform="matrix(0.50895685,0,0,0.50895685,0.72969114,1.3277154)"><path
       class="st0"
       d="m 95.7,65.5 c 15.01,0 27.18,12.17 27.18,27.18 0,15.01 -12.17,27.18 -27.18,27.18 -15.01,0 -27.18,-12.17 -27.18,-27.18 C 68.52,77.67 80.69,65.5 95.7,65.5 Z M 17.69,26.67 c 8.1,2.71 19.38,4.38 31.91,4.38 12.53,0 23.81,-1.67 31.91,-4.38 7.11,-2.37 11.51,-5.25 11.51,-8.06 0,-2.81 -4.4,-5.69 -11.51,-8.06 C 73.41,7.85 62.13,6.17 49.6,6.17 37.07,6.17 25.79,7.84 17.69,10.55 2.6,15.59 2.18,21.5 17.69,26.67 Z M 6.24,47.86 c 0.56,2.62 4.83,5.26 11.45,7.47 8.1,2.71 19.38,4.38 31.91,4.38 12.53,0 23.81,-1.67 31.91,-4.38 7.11,-2.37 11.51,-5.25 11.51,-8.06 h 0.03 v -19.3 c -2.53,1.73 -5.78,3.26 -9.59,4.53 -8.73,2.91 -20.71,4.72 -33.86,4.72 -13.16,0 -25.13,-1.8 -33.86,-4.72 -3.77,-1.26 -6.98,-2.76 -9.49,-4.47 v 19.83 z m 105.23,41.78 v 6.07 c 0,1.24 -1.01,2.25 -2.25,2.25 h -8.24 v 8.24 c 0,1.24 -1.01,2.25 -2.25,2.25 h -6.07 c -1.24,0 -2.25,-1.01 -2.25,-2.25 v -8.24 h -8.24 c -1.24,0 -2.25,-1.01 -2.25,-2.25 v -6.07 c 0,-1.24 1.01,-2.25 2.25,-2.25 h 8.24 v -8.24 c 0,-1.24 1.01,-2.25 2.25,-2.25 h 6.07 c 1.24,0 2.25,1.01 2.25,2.25 v 8.24 h 8.24 c 1.24,0 2.25,1.02 2.25,2.25 z m -48.17,2.9 c -4.35,0.44 -8.95,0.67 -13.7,0.67 -13.16,0 -25.13,-1.8 -33.86,-4.72 -3.77,-1.26 -6.98,-2.76 -9.49,-4.47 v 18.49 c 0.56,2.62 4.83,5.26 11.45,7.47 8.1,2.7 19.38,4.38 31.91,4.38 7.52,0 14.58,-0.6 20.78,-1.67 1.56,1.94 3.33,3.7 5.29,5.24 -7.53,1.65 -16.49,2.6 -26.07,2.6 -13.16,0 -25.13,-1.8 -33.86,-4.72 -4.6,-1.54 -15.67,-6.58 -15.67,-12.62 0,-0.71 0,-1.3 0,-1.98 C 0.06,73.69 0,46.15 0,18.61 0,12.85 6.01,7.96 15.73,4.71 24.46,1.8 36.44,0 49.6,0 c 13.16,0 25.13,1.8 33.86,4.72 8.85,2.95 14.62,7.27 15.59,12.37 0.12,0.32 0.18,0.67 0.18,1.04 V 60.5 c -1.2,-0.14 -2.42,-0.21 -3.66,-0.21 -0.85,0 -1.68,0.03 -2.51,0.1 v -3.74 c -2.53,1.73 -5.78,3.26 -9.59,4.53 C 74.74,64.09 62.76,65.9 49.61,65.9 36.45,65.9 24.48,64.1 15.75,61.18 11.98,59.92 8.77,58.42 6.26,56.71 V 75.2 c 0.56,2.62 4.83,5.26 11.45,7.47 8.1,2.7 19.38,4.38 31.91,4.38 5.01,0 9.82,-0.27 14.31,-0.76 -0.42,2.01 -0.63,4.11 -0.63,6.25 z"
       id="path1" /></g></svg>
