<?xml version="1.0" encoding="UTF-8" standalone="no"?>
<svg
   shape-rendering="geometricPrecision"
   text-rendering="geometricPrecision"
   image-rendering="optimizeQuality"
   fill-rule="evenodd"
   clip-rule="evenodd"
   viewBox="0 0 64 64"
   version="1.1"
   id="svg3"
   sodipodi:docname="copy_elem.svg"
   inkscape:version="1.4.3 (0d15f75042, 2025-12-25)"
   width="64"
   height="64"
   xml:space="preserve"
   xmlns:inkscape="http://www.inkscape.org/namespaces/inkscape"
   xmlns:sodipodi="http://sodipodi.sourceforge.net/DTD/sodipodi-0.dtd"
   xmlns="http://www.w3.org/2000/svg"
   xmlns:svg="http://www.w3.org/2000/svg"><defs
     id="defs3" /><sodipodi:namedview
     id="namedview3"
     pagecolor="#ffffff"
     bordercolor="#000000"
     borderopacity="0.25"
     inkscape:showpageshadow="2"
     inkscape:pageopacity="0.0"
     inkscape:pagecheckerboard="0"
     inkscape:deskcolor="#d1d1d1"
     inkscape:zoom="8.9351988"
     inkscape:cx="31.616532"
     inkscape:cy="29.602027"
     inkscape:window-width="3440"
     inkscape:window-height="1376"
     inkscape:window-x="0"
     inkscape:window-y="0"
     inkscape:window-maximized="1"
     inkscape:current-layer="svg3" /><path
     style="fill:#ececec;stroke:none;stroke-width:0.193161;stroke-linecap:round;stroke-linejoin:round;paint-order:markers stroke fill"
     d="M 8.5003842,52.910473 V 7.9813243 c 0.27887,-2.897913 1.8672178,-4.4863411 4.7650428,-4.765284 H 36.40202 l 2.094108,0.8344559 10.999679,11.9001718 0.389099,2.094228 2.094107,18.269297 V 58.980199 L 32.709263,59.769744 13.265427,57.675515 C 10.867569,57.848539 8.7599773,56.154131 8.5003842,52.910473 Z"
     id="path4"
     sodipodi:nodetypes="cccccccccccc" /><g
     style="clip-rule:evenodd;fill-rule:evenodd;stroke-width:8.76829;image-rendering:optimizeQuality;shape-rendering:geometricPrecision;text-rendering:geometricPrecision"
     id="g1"
     transform="matrix(0.1140473,0,0,0.1140473,6.5884164,1.1774805)"><path
       fill-rule="nonzero"
       d="m 59.903,0 h 217.546 a 9.13,9.13 0 0 1 7.302,3.641 l 110.78,119.85 a 9.064,9.064 0 0 1 2.419,6.179 h 0.048 v 322.611 c 0,16.401 -6.783,31.385 -17.651,42.253 -10.87,10.87 -25.855,17.651 -42.254,17.651 H 59.903 c -16.42,0 -31.421,-6.756 -42.294,-17.627 C 6.763,483.711 0,468.748 0,452.281 V 59.905 C 0,43.421 6.739,28.44 17.59,17.59 28.44,6.739 43.419,0 59.903,0 Z M 18.289,339.084 h 361.42 V 147.793 h -45.186 v -0.038 H 334.38 C 312.527,147.409 295.421,141.61 283.22,131.188 270.558,120.367 263.455,104.922 262.047,85.717 A 9.118,9.118 0 0 1 261.96,84.463 V 18.289 H 59.903 c -11.434,0 -21.839,4.686 -29.384,12.23 -7.544,7.545 -12.23,17.949 -12.23,29.386 z m 361.42,18.494 H 18.289 v 94.703 c 0,11.413 4.705,21.802 12.25,29.347 7.567,7.566 17.985,12.268 29.364,12.268 h 278.19 c 11.354,0 21.756,-4.723 29.324,-12.292 7.569,-7.568 12.292,-17.968 12.292,-29.323 z M 295.06,255.139 v -3.761 h -7.106 v -21.316 h 33.576 v 46.532 c -11.052,4.18 -22.477,6.269 -34.272,6.269 -15.883,0 -26.797,-3.854 -32.74,-11.563 -3.065,-3.993 -5.201,-8.685 -6.41,-14.071 -1.206,-5.387 -1.811,-12.051 -1.811,-19.993 0,-7.94 0.628,-14.582 1.882,-19.922 1.254,-5.341 3.505,-10.009 6.757,-14.002 6.13,-7.801 17.971,-11.703 35.525,-11.703 3.624,0 8.337,0.371 14.142,1.115 5.806,0.743 10.055,1.578 12.748,2.508 l -4.18,21.316 c -7.523,-1.301 -14.328,-1.951 -20.409,-1.951 -6.084,0 -10.357,0.464 -12.819,1.392 -2.461,0.93 -3.691,2.788 -3.691,5.575 v 39.426 h 9.194 c 3.345,0 5.782,-0.347 7.316,-1.044 1.532,-0.697 2.298,-2.299 2.298,-4.807 z m -84.08,-61.441 h 29.398 l -21.594,87.076 h -40.683 l -21.594,-87.076 h 29.396 l 11.843,55.31 H 199 Z m -134.511,85.543 3.899,-22.988 c 8.546,2.137 16.231,3.205 23.058,3.205 6.828,0 12.331,-0.278 16.509,-0.835 v -6.967 l -12.538,-1.115 c -11.331,-1.021 -19.111,-3.738 -23.336,-8.149 -4.226,-4.412 -6.339,-10.938 -6.339,-19.575 0,-11.889 2.577,-20.061 7.733,-24.52 5.153,-4.459 13.909,-6.688 26.262,-6.688 12.353,0 23.497,1.161 33.436,3.483 l -3.483,22.291 c -8.637,-1.394 -15.558,-2.089 -20.759,-2.089 -5.201,0 -9.613,0.231 -13.236,0.695 v 6.828 l 10.031,0.976 c 12.167,1.206 20.573,4.109 25.217,8.706 4.645,4.599 6.967,10.985 6.967,19.157 0,5.851 -0.79,10.798 -2.37,14.837 -1.577,4.041 -3.459,7.105 -5.641,9.196 -2.182,2.089 -5.271,3.691 -9.265,4.807 -3.995,1.113 -7.499,1.786 -10.518,2.019 -3.02,0.233 -7.036,0.348 -12.052,0.348 -12.074,0 -23.266,-1.207 -33.575,-3.622 z m 43.993,156.657 c -5.206,0 -9.43,-4.223 -9.43,-9.431 0,-5.207 4.224,-9.43 9.43,-9.43 h 153.267 c 5.207,0 9.43,4.223 9.43,9.43 0,5.208 -4.223,9.431 -9.43,9.431 z M 280.249,25.577 v 58.847 c 1.04,14.193 6.016,25.375 14.831,32.906 8.947,7.64 22.117,11.911 39.443,12.209 v -0.035 h 41.788 z"
       id="path1-3"
       style="stroke-width:8.76829" /></g><rect
     style="fill:#fff6d5;fill-opacity:1;stroke:#003380;stroke-width:2;stroke-linecap:round;stroke-linejoin:round;paint-order:markers fill stroke"
     id="rect2"
     width="35.383881"
     height="39.364769"
     x="15.929563"
     y="22.199121" /><path
     style="fill:#ffcc00;stroke:#ff0000;stroke-width:2;stroke-linecap:round;stroke-linejoin:round;paint-order:markers fill stroke"
     d="m 23.614472,35.141915 17.011373,-7.386517 5.81968,16.227954 -20.816548,10.296358 -3.021757,-7.2746 4.36476,-2.126422 z"
     id="path1" /></svg>
