<svg xmlns="http://www.w3.org/2000/svg" shape-rendering="geometricPrecision" text-rendering="geometricPrecision" image-rendering="optimizeQuality" fill-rule="evenodd" clip-rule="evenodd" viewBox="0 0 424 511.54"><path fill="#262626" fill-rule="nonzero" d="M86.37 413.44c-11.76 0-11.76-17.89 0-17.89H189.1c-.2 2.95-.31 5.93-.31 8.94s.11 5.99.31 8.95H86.37zM73.52 264.85l3.7-20.21c8.1 2.02 15.39 3.04 21.87 3.04 6.47 0 11.69-.27 15.66-.8v-8.19l-11.9-1.06c-10.74-.97-18.12-3.54-22.13-7.73-4.01-4.18-6.01-10.37-6.01-18.56 0-11.28 2.44-19.03 7.33-23.26 4.89-4.23 13.2-6.34 24.91-6.34 11.72 0 22.29 1.1 31.71 3.3l-3.3 19.56c-8.19-1.33-14.76-1.99-19.69-1.99-4.93 0-9.12.22-12.55.66v8.07l9.51.92c11.54 1.15 19.52 3.9 23.92 8.26 4.41 4.36 6.61 10.42 6.61 18.17 0 5.55-.75 10.24-2.25 14.07s-3.28 6.74-5.35 8.72c-2.07 1.99-5 3.5-8.79 4.56-3.79 1.06-7.11 1.7-9.97 1.92-2.87.22-6.68.33-11.43.33-11.46 0-22.07-1.15-31.85-3.44zm126.59-81.13h27.88l-20.48 82.59h-38.59l-20.48-82.59h27.88l11.24 52.46h1.19l11.36-52.46zm78.76 58.27v-3.57h-6.74v-20.21h31.84v44.13a91.024 91.024 0 01-32.5 5.95c-15.07 0-25.42-3.66-31.06-10.97-2.9-3.79-4.93-8.24-6.08-13.35-1.14-5.11-1.71-11.43-1.71-18.96 0-7.53.59-13.83 1.78-18.89 1.19-5.07 3.33-9.5 6.41-13.28 5.81-7.4 17.05-11.1 33.69-11.1 3.44 0 7.91.35 13.42 1.05 5.5.71 9.53 1.5 12.09 2.38l-3.97 20.22c-7.13-1.23-13.59-1.85-19.35-1.85-5.77 0-9.83.44-12.16 1.32-2.34.88-3.5 2.64-3.5 5.29v37.39h8.72c3.17 0 5.48-.33 6.94-.99 1.45-.66 2.18-2.18 2.18-4.56zM265.81 24.26v29.1c0 65.66 15.31 69.47 69.08 69.47h22.03l-91.11-98.57zm94.33 115.92h-21.48c-61.02 0-90.2-4.09-90.2-86.28V17.35H56.82c-21.7 0-39.47 17.78-39.47 39.47v264.79H219.2c-4.64 5.47-8.83 11.34-12.51 17.54H17.35v89.83c0 21.62 17.85 39.47 39.47 39.47h149.04c3.53 6.12 7.56 11.92 12.02 17.34H56.82C25.63 485.79 0 460.17 0 428.98V56.82C0 25.55 25.55 0 56.82 0h206.33a8.68 8.68 0 016.93 3.45l105.07 113.68c2.19 2.37 2.34 4.66 2.34 7.52v166.86c-5.55-2.98-11.35-5.56-17.35-7.71V140.18z"/><path fill="red" d="M316.95 297.45c59.12 0 107.05 47.93 107.05 107.05 0 59.11-47.93 107.04-107.05 107.04S209.9 463.61 209.9 404.5c0-59.12 47.93-107.05 107.05-107.05z"/><path fill="#fff" fill-rule="nonzero" d="M337.9 356.54l-3.77 47.75 17.35-6.07c11.47-4.4 23.27 3.72 14.38 13.82-10.82 12.45-27.26 29.55-39.22 40.94-7.43 7.42-11.73 7.49-19.18.06-13.24-13-26.24-27.44-39.18-40.87-9.25-10.06 2.3-18.55 14.28-13.95l17.16 6.01c-1.25-16.28-2.82-31.84-3.77-48.1 0-2.99 2.5-5.39 5.42-5.61 10.31 0 20.84-.24 31.12 0 2.92.22 5.42 2.62 5.42 5.61l-.01.41z"/></svg>