<?xml version="1.0" encoding="UTF-8" standalone="no"?>
<svg
   shape-rendering="geometricPrecision"
   text-rendering="geometricPrecision"
   image-rendering="optimizeQuality"
   fill-rule="evenodd"
   clip-rule="evenodd"
   viewBox="0 0 64 64"
   version="1.1"
   id="svg3"
   xml:space="preserve"
   width="64"
   height="64"
   sodipodi:docname="extract.svg"
   inkscape:version="1.4 (e7c3feb100, 2024-10-09)"
   xmlns:inkscape="http://www.inkscape.org/namespaces/inkscape"
   xmlns:sodipodi="http://sodipodi.sourceforge.net/DTD/sodipodi-0.dtd"
   xmlns:xlink="http://www.w3.org/1999/xlink"
   xmlns="http://www.w3.org/2000/svg"
   xmlns:svg="http://www.w3.org/2000/svg"><sodipodi:namedview
     id="namedview1"
     pagecolor="#ffffff"
     bordercolor="#000000"
     borderopacity="0.25"
     inkscape:showpageshadow="2"
     inkscape:pageopacity="0.0"
     inkscape:pagecheckerboard="0"
     inkscape:deskcolor="#d1d1d1"
     inkscape:zoom="8.9272231"
     inkscape:cx="28.732339"
     inkscape:cy="39.766005"
     inkscape:window-width="1920"
     inkscape:window-height="1021"
     inkscape:window-x="1920"
     inkscape:window-y="0"
     inkscape:window-maximized="1"
     inkscape:current-layer="svg3" /><defs
     id="defs3"><symbol
       id="AigaSymbols.svg:RightAndDownArrow"><title
         id="title286">Right and Down Arrow</title><path
         d="M 56,56 H 24 L 13,45 H 37 L 14,22 22,14 45,37 V 13 l 11,11 z"
         style="stroke:none"
         id="path286" /></symbol></defs><g
     id="g1"><path
       style="fill:#ececec;stroke:none;stroke-width:0.201841;stroke-linecap:round;stroke-linejoin:round;paint-order:markers stroke fill"
       d="M 10.3779,55.474253 V 8.5260022 C 10.669302,5.497858 12.32903,3.8380463 15.357082,3.5465678 h 24.176346 l 2.188216,0.8719561 11.494001,12.4349611 0.406585,2.188343 2.188216,19.090314 v 23.68461 L 35.67472,62.641778 15.357082,60.453436 c -2.505617,0.1808 -4.707922,-1.589755 -4.979182,-4.979183 z"
       id="path4" /><path
       fill="#262626"
       fill-rule="nonzero"
       d="m 41.721644,4.4185239 v 3.6713749 c 0,8.2828252 1.931876,8.7635862 8.714768,8.7635862 h 2.779233 z M 53.62223,19.041828 h -2.709725 c -7.698368,0 -11.379077,-0.51621 -11.379077,-10.8839346 V 3.5465678 H 15.357082 c -2.736594,0 -4.979182,2.2427134 -4.979182,4.9794344 V 41.930045 44.14286 55.474253 c 0,2.727639 2.251797,4.979183 4.979182,4.979183 h 39.487844 c 0.444162,0.76976 -0.564179,1.501676 0,2.188342 H 15.357082 c -3.934778,0 -7.1675249,-3.232494 -7.1675249,-7.167525 V 8.5260022 c 0,-3.9442388 3.2231599,-7.1677769 7.1675249,-7.1677769 h 26.029505 c 0.34357,-2.978e-4 0.667247,0.1611196 0.873722,0.4357258 L 55.51538,16.134172 c 0.276397,0.2986 0.295066,0.588242 0.295066,0.948278 v 43.477917 c -0.704212,-0.378121 -1.435647,0.26931 -2.188216,0 z"
       id="path1"
       style="fill:#008000;stroke-width:0.126151" /><use
       xlink:href="#AigaSymbols.svg:RightAndDownArrow"
       style="fill:#ff6600;stroke:#000000"
       id="use1"
       transform="matrix(0.70823501,0,0,0.70823501,6.7065955,13.539627)" /></g></svg>
