<?xml version="1.0" encoding="UTF-8" standalone="no"?>
<svg
   shape-rendering="geometricPrecision"
   text-rendering="geometricPrecision"
   image-rendering="optimizeQuality"
   fill-rule="evenodd"
   clip-rule="evenodd"
   viewBox="0 0 64 64"
   version="1.1"
   id="svg3"
   sodipodi:docname="import_svg.svg"
   inkscape:version="1.4 (e7c3feb100, 2024-10-09)"
   width="64"
   height="64"
   xmlns:inkscape="http://www.inkscape.org/namespaces/inkscape"
   xmlns:sodipodi="http://sodipodi.sourceforge.net/DTD/sodipodi-0.dtd"
   xmlns="http://www.w3.org/2000/svg"
   xmlns:svg="http://www.w3.org/2000/svg">
  <defs
     id="defs3" />
  <sodipodi:namedview
     id="namedview3"
     pagecolor="#ffffff"
     bordercolor="#000000"
     borderopacity="0.25"
     inkscape:showpageshadow="2"
     inkscape:pageopacity="0.0"
     inkscape:pagecheckerboard="0"
     inkscape:deskcolor="#d1d1d1"
     inkscape:zoom="6.3181396"
     inkscape:cx="35.928298"
     inkscape:cy="45.26649"
     inkscape:window-width="1920"
     inkscape:window-height="1021"
     inkscape:window-x="1920"
     inkscape:window-y="0"
     inkscape:window-maximized="1"
     inkscape:current-layer="svg3" />
  <g
     id="g1"
     transform="matrix(0.12139216,0,0,0.12139216,6.2648621,0.95134535)">
    <path
       style="fill:#ececec;stroke:none;stroke-width:1.6;stroke-linecap:round;stroke-linejoin:round;paint-order:markers stroke fill"
       d="M 17.347,428.978 V 56.819 C 19.656948,32.814886 32.813614,19.657552 56.817,17.347 h 191.646 l 17.346,6.912 91.113,98.572 3.223,17.347 17.346,151.329 V 479.25501 L 217.875,485.795 56.817,468.448 c -19.862034,1.4332 -37.319727,-12.60199 -39.47,-39.47 z"
       id="path4"
       sodipodi:nodetypes="cccccccccccc" />
    <path
       fill="#262626"
       fill-rule="nonzero"
       d="m 86.371,413.439 c -11.766,0 -11.766,-17.89 0,-17.89 h 102.733 a 129.853,129.853 0 0 0 -0.316,8.945 c 0,3.008 0.112,5.99 0.316,8.945 z M 75.501,264.854 79.2,245.032 c 12.243,3.06 24.995,3.918 37.528,2.247 v -8.589 c -10.318,-0.918 -26.758,-1.199 -34.026,-8.787 -4.008,-4.184 -6.012,-10.374 -6.012,-18.566 0,-11.276 2.444,-19.028 7.334,-23.257 4.888,-4.229 13.192,-6.344 24.909,-6.344 11.717,0 22.287,1.102 31.713,3.304 l -3.304,19.161 c -10.802,-1.743 -21.339,-2.719 -32.243,-1.322 v 8.458 l 9.514,0.925 c 11.541,1.145 19.514,3.897 23.919,8.258 4.404,4.362 6.607,10.418 6.607,18.17 0,5.549 -0.749,10.241 -2.248,14.073 -1.496,3.831 -3.281,6.738 -5.35,8.722 -2.07,1.981 -4.999,3.5 -8.787,4.558 -3.789,1.056 -7.114,1.695 -9.977,1.916 -2.864,0.221 -6.673,0.33 -11.43,0.33 -11.453,0 -22.068,-1.145 -31.846,-3.435 z m 124.608,-81.136 h 27.883 l -20.481,82.589 h -38.587 l -20.481,-82.589 h 27.881 l 10.242,52.461 h 3.171 z m 76.776,58.276 v -3.568 h -6.74 v -20.218 h 31.846 v 44.135 c -10.483,3.964 -21.319,5.946 -32.505,5.946 -18.563,0 -32.817,-5.068 -37.134,-24.314 -1.144,-5.109 -1.717,-11.43 -1.717,-18.962 0,-7.531 0.595,-13.831 1.785,-18.895 4.738,-20.183 21.148,-24.382 40.103,-24.382 3.437,0 7.907,0.353 13.414,1.058 5.506,0.705 9.536,1.497 12.091,2.379 l -3.965,20.218 c -7.136,-1.234 -13.59,-1.851 -19.358,-1.851 -5.77,0 -9.823,0.441 -12.159,1.321 -2.333,0.882 -3.5,2.644 -3.5,5.287 v 37.395 h 8.72 c 3.173,0 5.484,-0.33 6.939,-0.991 1.453,-0.661 2.18,-2.18 2.18,-4.558 z M 265.809,24.259 v 29.103 c 0,65.658 15.314,69.469 69.082,69.469 h 22.031 z m 94.336,115.919 h -21.48 c -61.025,0 -90.202,-4.092 -90.202,-86.277 V 17.347 H 56.817 c -21.693,0 -39.47,17.778 -39.47,39.472 v 264.794 h 201.856 a 128.538,128.538 0 0 0 -12.518,17.541 H 17.347 v 89.824 c 0,21.622 17.85,39.47 39.47,39.47 h 149.048 a 128.452,128.452 0 0 0 12.01,17.347 H 56.817 C 25.626,485.795 0,460.171 0,428.978 V 56.819 C 0,25.553 25.55,0 56.817,0 h 206.336 a 8.656,8.656 0 0 1 6.926,3.454 l 105.073,113.675 c 2.191,2.367 2.339,4.663 2.339,7.517 v 166.861 a 127.423,127.423 0 0 0 -17.346,-7.709 z"
       id="path1" />
    <path
       fill="#ff0000"
       d="m 316.953,297.447 c 59.119,0 107.047,47.93 107.047,107.049 0,59.118 -47.928,107.047 -107.047,107.047 -59.12,0 -107.049,-47.929 -107.049,-107.047 0,-59.119 47.929,-107.049 107.049,-107.049 z"
       id="path2" />
    <path
       fill="#ffffff"
       fill-rule="nonzero"
       d="m 342.85518,399.72119 26.14718,9.14406 c 17.29228,6.63896 35.07732,-5.59885 21.674,-20.83158 -16.31267,-18.76023 -41.08927,-44.54005 -59.11479,-61.70988 -11.19623,-11.19033 -17.68914,-11.28771 -28.92373,-0.0915 -19.95229,19.59084 -39.54165,41.35778 -59.04397,61.60808 -13.95067,15.16634 3.45226,27.96626 21.51466,21.02485 l 25.87424,-9.05111 c -1.89432,24.53169 -4.25779,47.98493 -5.69033,72.5004 0,4.51302 3.77388,8.12019 8.17773,8.46099 15.54107,0 31.41113,0.3644 46.9109,0 4.39941,-0.3408 8.17329,-3.95387 8.17329,-8.46099 z"
       id="path3"
       style="stroke-width:1.47532" />
  </g>
</svg>
