<?xml version="1.0" encoding="UTF-8" standalone="no"?>
<svg
   shape-rendering="geometricPrecision"
   text-rendering="geometricPrecision"
   image-rendering="optimizeQuality"
   fill-rule="evenodd"
   clip-rule="evenodd"
   viewBox="0 0 64 63.999999"
   version="1.1"
   id="svg7"
   sodipodi:docname="preferences-svg.svg"
   width="64"
   height="64"
   inkscape:version="1.4 (e7c3feb100, 2024-10-09)"
   xmlns:inkscape="http://www.inkscape.org/namespaces/inkscape"
   xmlns:sodipodi="http://sodipodi.sourceforge.net/DTD/sodipodi-0.dtd"
   xmlns="http://www.w3.org/2000/svg"
   xmlns:svg="http://www.w3.org/2000/svg">
  <defs
     id="defs7" />
  <sodipodi:namedview
     id="namedview7"
     pagecolor="#ffffff"
     bordercolor="#000000"
     borderopacity="0.25"
     inkscape:showpageshadow="2"
     inkscape:pageopacity="0.0"
     inkscape:pagecheckerboard="0"
     inkscape:deskcolor="#d1d1d1"
     inkscape:zoom="4.4670577"
     inkscape:cx="44.212547"
     inkscape:cy="51.935752"
     inkscape:window-width="1920"
     inkscape:window-height="1021"
     inkscape:window-x="1920"
     inkscape:window-y="0"
     inkscape:window-maximized="1"
     inkscape:current-layer="svg7" />
  <g
     id="g7"
     transform="translate(6.4894375,0.999214)">
    <path
       fill="#e44b4d"
       d="M 11.598519,0.00169666 H 35.726784 L 51.021123,16.548295 v 38.484591 c 0,3.822343 -3.146221,6.968686 -6.968686,6.968686 H 11.598519 c -3.8235543,0 -6.9686854,-3.135558 -6.9686854,-6.968686 V 6.970261 c 0,-3.8331285 3.1355571,-6.96856434 6.9686854,-6.96856434 z"
       id="path1"
       style="stroke-width:0.12119" />
    <path
       fill="#cd4445"
       d="m 41.329291,16.167757 h -0.0023 l 9.694134,6.70946 v -6.309895 h -6.587542 c -1.146218,-0.01817 -2.181184,-0.154396 -3.104289,-0.399565 z"
       id="path2"
       style="stroke-width:0.12119" />
    <path
       fill="#fbcfd0"
       d="m 35.726905,0 15.294218,16.546478 v 0.02085 H 44.433581 C 38.971776,16.48031 36.031457,13.731837 35.726905,9.1281803 Z"
       id="path3"
       style="stroke-width:0.12119" />
    <path
       fill="#cd4445"
       fill-rule="nonzero"
       d="M 0,52.342219 V 30.710111 L 0.00339333,30.557289 C 0.08434846,28.564194 1.7404141,26.95721 3.7525369,26.95721 h 0.8771755 v 6.130898 H 46.194962 c 1.558749,0 2.83258,1.27371 2.83258,2.832338 v 16.421773 c 0,1.554871 -1.277709,2.832581 -2.83258,2.832581 H 2.8325812 C 1.2774671,55.1748 0,53.899393 0,52.342219 Z"
       id="path4"
       style="stroke-width:0.12119" />
    <path
       fill="#963232"
       fill-rule="nonzero"
       d="m 17.384509,29.129789 a 1.0296329,1.0296329 0 0 1 -1.029634,-1.029754 1.0296329,1.0296329 0 0 1 1.029634,-1.029754 h 19.77535 a 1.0296329,1.0296329 0 0 1 1.029634,1.029754 1.0296329,1.0296329 0 0 1 -1.029634,1.029754 z m 0,-7.171558 a 1.0296938,1.0296938 0 0 1 0,-2.059387 h 20.881575 a 1.0296938,1.0296938 0 1 1 0,2.059387 z"
       id="path5"
       style="stroke-width:0.12119" />
    <path
       fill="#ffffff"
       fill-rule="nonzero"
       d="m 1.3729651,33.469251 v 18.751535 c 0,0.944436 0.7731942,1.718237 1.7183575,1.718237 H 46.073529 c 0.945163,0 1.718235,-0.773074 1.718235,-1.718237 v -16.17818 c 0,-0.945042 -0.774163,-1.718236 -1.718235,-1.718236 H 4.5921434 C 3.062964,34.312736 2.2185099,34.12586 1.3729651,33.469251 Z"
       id="path6"
       style="stroke-width:0.12119" />
    <path
       fill="#1a1a1a"
       fill-rule="nonzero"
       d="m 10.735523,48.492124 0.444647,-2.620135 c 0.974007,0.243351 1.849849,0.365025 2.628255,0.365025 0.778041,0 1.40508,-0.03175 1.881358,-0.09526 v -0.793916 l -1.428955,-0.127129 c -1.291526,-0.116464 -2.178275,-0.425984 -2.659763,-0.928802 -0.481853,-0.502819 -0.722537,-1.246564 -0.722537,-2.231235 0,-1.355029 0.293644,-2.286377 0.881296,-2.794648 0.587652,-0.508273 1.585169,-0.762288 2.993158,-0.762288 1.407989,0 2.678549,0.132339 3.811194,0.39702 l -0.396899,2.540634 c -0.98455,-0.15876 -1.773257,-0.23814 -2.36612,-0.23814 -0.592863,0 -1.095561,0.02654 -1.508698,0.07938 v 0.778043 l 1.14343,0.111375 c 1.386659,0.13743 2.344791,0.468279 2.874028,0.992306 0.529602,0.524149 0.79416,1.251897 0.79416,2.183487 0,0.667031 -0.09004,1.230566 -0.270011,1.69109 -0.179846,0.460522 -0.394354,0.810036 -0.643157,1.048174 -0.248804,0.23814 -0.600619,0.420773 -1.055931,0.547902 -0.45507,0.126887 -0.854877,0.203721 -1.198936,0.230141 -0.34406,0.02654 -0.801916,0.03974 -1.37345,0.03974 -1.376359,0 -2.652008,-0.13755 -3.827069,-0.412773 z m 15.212778,-9.750246 h 3.350427 l -2.461375,9.924759 h -4.636742 l -2.461375,-9.924759 h 3.350428 l 1.349939,6.304199 h 0.143004 z m 9.463994,7.002982 v -0.428649 h -0.809793 v -2.429625 h 3.826826 v 5.303773 c -1.259652,0.476278 -2.561721,0.714538 -3.906206,0.714538 -1.810463,0 -3.054239,-0.439314 -3.731813,-1.318065 -0.349271,-0.455312 -0.592864,-0.989762 -0.730414,-1.603833 -0.137673,-0.613829 -0.206509,-1.37345 -0.206509,-2.278742 0,-0.905169 0.07162,-1.661882 0.214385,-2.270621 0.142884,-0.60886 0.399807,-1.140764 0.770287,-1.596076 0.698662,-0.889174 2.048236,-1.333821 4.049089,-1.333821 0.413016,0 0.950374,0.04229 1.611952,0.127129 0.661579,0.08459 1.145976,0.179846 1.45283,0.285887 l -0.476278,2.429503 c -0.857421,-0.148216 -1.633039,-0.222384 -2.326491,-0.222384 -0.693209,0 -1.180151,0.05296 -1.460828,0.158759 -0.280555,0.105923 -0.420894,0.317518 -0.420894,0.635158 v 4.494101 h 1.048175 c 0.381144,0 0.658912,-0.03976 0.833547,-0.119131 0.174878,-0.07937 0.262135,-0.262012 0.262135,-0.547901 z"
       id="path7"
       style="stroke-width:0.12119" />
  </g>
</svg>
