<?xml version="1.0" encoding="UTF-8" standalone="no"?>
<svg
   shape-rendering="geometricPrecision"
   text-rendering="geometricPrecision"
   image-rendering="optimizeQuality"
   fill-rule="evenodd"
   clip-rule="evenodd"
   viewBox="0 0 64 64.000001"
   version="1.1"
   id="svg1"
   width="64"
   height="64"
   xmlns="http://www.w3.org/2000/svg"
   xmlns:svg="http://www.w3.org/2000/svg">
  <defs
     id="defs1" />
  <path
     style="fill:#5599ff;stroke:none;stroke-width:2"
     d="M 5.8276116,6.9751843 H 58.093609 L 57.047727,13.462994 38.853602,35.803182 36.01428,51.156777 25.419055,55.999687 V 31.26703 Z"
     id="path2" />
  <path
     d="m 46.938001,12.028237 c 6.504717,0 11.777572,5.272853 11.777572,11.778778 0,6.504717 -5.272855,11.777572 -11.777572,11.777572 -6.505924,0 -11.778778,-5.272855 -11.778778,-11.777572 0,-6.505925 5.272854,-11.778778 11.778778,-11.778778 z M 2.4701826,4.155186 H 61.507794 c 0.778972,0 1.409395,0.6316314 1.409395,1.4106033 0,0.4263211 -0.184779,0.8164108 -0.501198,1.0760681 L 57.047727,13.462994 C 56.339282,12.769227 55.561464,12.150048 54.726512,11.6152 l 3.347767,-4.6581307 0.01933,0.018115 H 5.8276116 L 24.93718,30.209077 c 0.295888,0.259657 0.481875,0.631632 0.481875,1.057953 V 55.999687 L 36.01428,51.156777 V 33.289941 c 0.830903,0.956505 1.7862,1.8019 2.839322,2.513241 v 16.170006 c 0,0.556754 -0.315212,1.038629 -0.798296,1.260847 L 24.733077,59.654213 C 24.065214,60.043095 23.211365,59.820877 22.821275,59.13369 22.69205,58.911472 22.636496,58.671139 22.636496,58.429597 V 31.841899 L 1.4859003,6.5488639 c -0.537453,-0.5527107 -0.537453,-1.4327619 0,-1.9854726 C 1.7648809,4.2856185 2.1175317,4.155186 2.4701826,4.155186 Z"
     id="path1"
     style="stroke-width:0.12077" />
  <g
     id="g3"
     transform="matrix(0.61703992,0,0,0.61703992,33.268028,9.5224327)"
     style="fill:#ffff00;stroke:#000000;stroke-width:2.27973;stroke-dasharray:none">
    <g
       id="g2"
       style="fill:#ffff00;stroke:#000000;stroke-width:2.27973;stroke-dasharray:none">
      <path
         d="m 43.454,18.443 h -2.437 c -0.453,-1.766 -1.16,-3.42 -2.082,-4.933 l 1.752,-1.756 C 41.16,11.281 41.42,10.65 41.42,9.98 41.42,9.311 41.158,8.679 40.687,8.207 L 37.767,5.29 C 36.82,4.342 35.165,4.343 34.222,5.289 L 32.396,7.104 C 30.9,6.232 29.296,5.56 27.529,5.128 V 2.52 C 27.529,1.137 26.424,0 25.041,0 H 20.913 C 19.53,0 18.442,1.137 18.442,2.52 v 2.607 c -1.766,0.431 -3.38,1.104 -4.878,1.977 L 11.739,5.289 C 10.793,4.341 9.137,4.342 8.188,5.288 L 5.27,8.205 C 4.802,8.672 4.535,9.318 4.535,9.978 c 0,0.669 0.259,1.299 0.733,1.772 L 7.02,13.51 C 6.099,15.023 5.391,16.677 4.939,18.443 H 2.501 C 1.117,18.443 0,19.555 0,20.935 v 4.125 c 0,1.384 1.117,2.471 2.501,2.471 h 2.438 c 0.452,1.766 1.159,3.43 2.079,4.943 l -1.752,1.763 c -0.474,0.473 -0.734,1.106 -0.734,1.776 0,0.67 0.261,1.303 0.734,1.776 l 2.92,2.919 c 0.474,0.473 1.103,0.733 1.772,0.733 0.669,0 1.299,-0.261 1.773,-0.733 l 1.833,-1.816 c 1.498,0.873 3.112,1.545 4.878,1.978 v 2.604 c 0,1.383 1.088,2.498 2.471,2.498 h 4.128 c 1.383,0 2.488,-1.115 2.488,-2.498 v -2.605 c 1.767,-0.432 3.371,-1.104 4.869,-1.977 l 1.817,1.812 c 0.474,0.475 1.104,0.735 1.775,0.735 0.67,0 1.301,-0.261 1.774,-0.733 l 2.92,-2.917 c 0.473,-0.472 0.732,-1.103 0.734,-1.772 0,-0.67 -0.262,-1.299 -0.734,-1.773 l -1.75,-1.77 c 0.92,-1.514 1.627,-3.179 2.08,-4.943 h 2.438 c 1.383,0 2.52,-1.087 2.52,-2.471 v -4.125 c 10e-4,-1.38 -1.135,-2.492 -2.518,-2.492 z M 22.976,30.85 c -4.378,0 -7.928,-3.517 -7.928,-7.852 0,-4.338 3.55,-7.85 7.928,-7.85 4.379,0 7.931,3.512 7.931,7.85 -0.001,4.336 -3.552,7.852 -7.931,7.852 z"
         id="path1-5"
         style="fill:#ffff00;stroke:#000000;stroke-width:2.27973;stroke-dasharray:none" />
    </g>
  </g>
</svg>
