<?xml version="1.0" encoding="UTF-8" standalone="no"?>
<svg
   shape-rendering="geometricPrecision"
   text-rendering="geometricPrecision"
   image-rendering="optimizeQuality"
   fill-rule="evenodd"
   clip-rule="evenodd"
   viewBox="0 0 397.998 512.185"
   version="1.1"
   id="svg1"
   sodipodi:docname="svg-file.svg"
   inkscape:version="1.4-rc1 (61ec3f2, 2024-09-26)"
   xmlns:inkscape="http://www.inkscape.org/namespaces/inkscape"
   xmlns:sodipodi="http://sodipodi.sourceforge.net/DTD/sodipodi-0.dtd"
   xmlns:xlink="http://www.w3.org/1999/xlink"
   xmlns="http://www.w3.org/2000/svg"
   xmlns:svg="http://www.w3.org/2000/svg">
  <defs
     id="defs1">
    <linearGradient
       id="linearGradient2"
       inkscape:collect="always">
      <stop
         style="stop-color:#003380;stop-opacity:1;"
         offset="0"
         id="stop2" />
      <stop
         style="stop-color:#448fff;stop-opacity:1;"
         offset="1"
         id="stop3" />
    </linearGradient>
    <linearGradient
       inkscape:collect="always"
       xlink:href="#linearGradient2"
       id="linearGradient3"
       x1="35.294662"
       y1="26.409002"
       x2="368.04587"
       y2="482.2352"
       gradientUnits="userSpaceOnUse" />
  </defs>
  <sodipodi:namedview
     id="namedview1"
     pagecolor="#ffffff"
     bordercolor="#000000"
     borderopacity="0.25"
     inkscape:showpageshadow="2"
     inkscape:pageopacity="0.0"
     inkscape:pagecheckerboard="0"
     inkscape:deskcolor="#d1d1d1"
     inkscape:zoom="1.577555"
     inkscape:cx="198.72524"
     inkscape:cy="283.98376"
     inkscape:window-width="1920"
     inkscape:window-height="1021"
     inkscape:window-x="1920"
     inkscape:window-y="0"
     inkscape:window-maximized="1"
     inkscape:current-layer="svg1" />
  <path
     style="fill:url(#linearGradient3);stroke:none;stroke-width:1.88976;stroke-linejoin:round;paint-order:stroke fill markers;fill-opacity:1"
     d="M 59.903,0 H 277.449 L 397.99799,129.67 V 452.28538 L 338.09376,512.185 H 59.90224 L 0,452.281 V 59.905 Z"
     id="path2" />
  <path
     fill-rule="nonzero"
     d="M59.903 0h217.546a9.13 9.13 0 017.302 3.641l110.78 119.85a9.064 9.064 0 012.419 6.179h.048v322.611c0 16.401-6.783 31.385-17.651 42.253-10.87 10.87-25.855 17.651-42.254 17.651H59.903c-16.42 0-31.421-6.756-42.294-17.627C6.763 483.711 0 468.748 0 452.281V59.905C0 43.421 6.739 28.44 17.59 17.59 28.44 6.739 43.419 0 59.903 0zM18.289 339.084h361.42V147.793h-45.186v-.038h-.143c-21.853-.346-38.959-6.145-51.16-16.567-12.662-10.821-19.765-26.266-21.173-45.471a9.118 9.118 0 01-.087-1.254V18.289H59.903c-11.434 0-21.839 4.686-29.384 12.23-7.544 7.545-12.23 17.949-12.23 29.386v279.179zm361.42 18.494H18.289v94.703c0 11.413 4.705 21.802 12.25 29.347 7.567 7.566 17.985 12.268 29.364 12.268h278.19c11.354 0 21.756-4.723 29.324-12.292 7.569-7.568 12.292-17.968 12.292-29.323v-94.703zM295.06 255.139v-3.761h-7.106v-21.316h33.576v46.532c-11.052 4.18-22.477 6.269-34.272 6.269-15.883 0-26.797-3.854-32.74-11.563-3.065-3.993-5.201-8.685-6.41-14.071-1.206-5.387-1.811-12.051-1.811-19.993 0-7.94.628-14.582 1.882-19.922 1.254-5.341 3.505-10.009 6.757-14.002 6.13-7.801 17.971-11.703 35.525-11.703 3.624 0 8.337.371 14.142 1.115 5.806.743 10.055 1.578 12.748 2.508l-4.18 21.316c-7.523-1.301-14.328-1.951-20.409-1.951-6.084 0-10.357.464-12.819 1.392-2.461.93-3.691 2.788-3.691 5.575v39.426h9.194c3.345 0 5.782-.347 7.316-1.044 1.532-.697 2.298-2.299 2.298-4.807zm-84.08-61.441h29.398l-21.594 87.076h-40.683l-21.594-87.076h29.396l11.843 55.31H199l11.98-55.31zM76.469 279.241l3.899-22.988c8.546 2.137 16.231 3.205 23.058 3.205 6.828 0 12.331-.278 16.509-.835v-6.967l-12.538-1.115c-11.331-1.021-19.111-3.738-23.336-8.149-4.226-4.412-6.339-10.938-6.339-19.575 0-11.889 2.577-20.061 7.733-24.52 5.153-4.459 13.909-6.688 26.262-6.688s23.497 1.161 33.436 3.483l-3.483 22.291c-8.637-1.394-15.558-2.089-20.759-2.089-5.201 0-9.613.231-13.236.695v6.828l10.031.976c12.167 1.206 20.573 4.109 25.217 8.706 4.645 4.599 6.967 10.985 6.967 19.157 0 5.851-.79 10.798-2.37 14.837-1.577 4.041-3.459 7.105-5.641 9.196-2.182 2.089-5.271 3.691-9.265 4.807-3.995 1.113-7.499 1.786-10.518 2.019-3.02.233-7.036.348-12.052.348-12.074 0-23.266-1.207-33.575-3.622zm43.993 156.657c-5.206 0-9.43-4.223-9.43-9.431 0-5.207 4.224-9.43 9.43-9.43h153.267c5.207 0 9.43 4.223 9.43 9.43 0 5.208-4.223 9.431-9.43 9.431H120.462zM280.249 25.577v58.847c1.04 14.193 6.016 25.375 14.831 32.906 8.947 7.64 22.117 11.911 39.443 12.209v-.035h41.788L280.249 25.577z"
     id="path1" />
</svg>
