<?xml version="1.0" encoding="UTF-8" standalone="no"?>
<svg
   version="1.1"
   id="Layer_1"
   x="0px"
   y="0px"
   viewBox="0 0 64.000001 64"
   xml:space="preserve"
   width="64"
   height="64"
   xmlns="http://www.w3.org/2000/svg"
   xmlns:svg="http://www.w3.org/2000/svg"><defs
     id="defs1" /><style
     type="text/css"
     id="style1">.st0{fill-rule:evenodd;clip-rule:evenodd;}</style><path
     id="path2"
     style="fill:#ffd42a;stroke:none;stroke-width:2"
     d="M 26.972656 2.9492188 C 22.999907 2.9945024 19.009774 3.2761233 15.027344 3.4472656 L 2.5917969 9.4824219 L 3.9101562 15.59375 L 3.9101562 53.5 C 3.043342 59.094031 22.42158 62.629195 39.248047 61.349609 L 39.412109 60.947266 A 15.928753 15.928753 0 0 1 33.119141 48.314453 A 15.928753 15.928753 0 0 1 49.046875 32.384766 A 15.928753 15.928753 0 0 1 51.070312 32.517578 L 51.234375 32.119141 L 51.234375 10.554688 L 46.564453 6.265625 C 40.165591 3.4500859 33.593904 2.8737459 26.972656 2.9492188 z " /><g
     id="g1"
     transform="matrix(0.50895685,0,0,0.50895685,0.72969114,1.3277154)"><path
       class="st0"
       d="m 95.7,65.5 c 15.01,0 27.18,12.17 27.18,27.18 0,15.01 -12.17,27.18 -27.18,27.18 -15.01,0 -27.18,-12.17 -27.18,-27.18 C 68.52,77.67 80.69,65.5 95.7,65.5 Z M 17.69,26.67 c 8.1,2.71 19.38,4.38 31.91,4.38 12.53,0 23.81,-1.67 31.91,-4.38 7.11,-2.37 11.51,-5.25 11.51,-8.06 0,-2.81 -4.4,-5.69 -11.51,-8.06 C 73.41,7.85 62.13,6.17 49.6,6.17 37.07,6.17 25.79,7.84 17.69,10.55 2.6,15.59 2.18,21.5 17.69,26.67 Z M 6.24,47.86 c 0.56,2.62 4.83,5.26 11.45,7.47 8.1,2.71 19.38,4.38 31.91,4.38 12.53,0 23.81,-1.67 31.91,-4.38 7.11,-2.37 11.51,-5.25 11.51,-8.06 h 0.03 V 27.97 C 90.52,29.7 87.27,31.23 83.46,32.5 74.73,35.41 62.75,37.22 49.6,37.22 36.44,37.22 24.47,35.42 15.74,32.5 11.97,31.24 8.76,29.74 6.25,28.03 V 47.86 Z M 63.3,92.54 c -4.35,0.44 -8.95,0.67 -13.7,0.67 -13.16,0 -25.13,-1.8 -33.86,-4.72 -3.77,-1.26 -6.98,-2.76 -9.49,-4.47 v 18.49 c 0.56,2.62 4.83,5.26 11.45,7.47 8.1,2.7 19.38,4.38 31.91,4.38 7.52,0 14.58,-0.6 20.78,-1.67 1.56,1.94 3.33,3.7 5.29,5.24 -7.53,1.65 -16.49,2.6 -26.07,2.6 -13.16,0 -25.13,-1.8 -33.86,-4.72 -4.6,-1.54 -15.67,-6.58 -15.67,-12.62 v -1.98 C 0.06,73.69 0,46.15 0,18.61 0,12.85 6.01,7.96 15.73,4.71 24.46,1.8 36.44,0 49.6,0 c 13.16,0 25.13,1.8 33.86,4.72 8.85,2.95 14.62,7.27 15.59,12.37 0.12,0.32 0.18,0.67 0.18,1.04 V 60.5 c -1.2,-0.14 -2.42,-0.21 -3.66,-0.21 -0.85,0 -1.68,0.03 -2.51,0.1 v -3.74 c -2.53,1.73 -5.78,3.26 -9.59,4.53 C 74.74,64.09 62.76,65.9 49.61,65.9 36.45,65.9 24.48,64.1 15.75,61.18 11.98,59.92 8.77,58.42 6.26,56.71 V 75.2 c 0.56,2.62 4.83,5.26 11.45,7.47 8.1,2.7 19.38,4.38 31.91,4.38 5.01,0 9.82,-0.27 14.31,-0.76 -0.42,2.01 -0.63,4.11 -0.63,6.25 z"
       id="path1" /></g><path
     class="cls-1"
     d="m 52.522007,39.01431 c -0.07714,-0.06769 -0.176574,-0.104486 -0.279195,-0.103302 -0.02038,-0.0026 -0.04103,-0.0026 -0.06142,0 h -8.8868 c -0.233017,1.66e-4 -0.456254,0.09368 -0.619814,0.259652 -0.166767,0.163018 -0.260432,0.386607 -0.259652,0.619814 v 16.857837 c 0.003,0.484913 0.394567,0.877694 0.879466,0.882259 h 13.063564 c 0.484899,-0.0046 0.876437,-0.397346 0.879467,-0.882259 V 44.042625 c 0.0043,-0.03243 0.0043,-0.06529 0,-0.09772 -0.0025,-0.113568 -0.05092,-0.221282 -0.134014,-0.298739 l -4.531346,-4.603937 c -0.0097,-0.01091 -0.02103,-0.02032 -0.03351,-0.02792 z m -1.236837,1.379227 v 2.845004 c -0.0017,0.344721 0.122525,0.678201 0.348995,0.938098 0.214981,0.214981 0.999521,0.717533 1.32618,0.717533 h 2.808709 v 11.075694 c 0,0.01954 -0.03071,0.04746 -0.05026,0.06142 -0.01954,0.01396 -0.01396,0.02792 -0.04188,0.02792 H 43.975826 c -0.02477,0.0022 -0.04901,-0.0082 -0.06422,-0.02792 -0.01592,-0.01678 -0.02575,-0.0384 -0.02792,-0.06142 V 40.48288 c -0.0024,-0.02401 0.0082,-0.04747 0.02792,-0.06142 0.01606,-0.01856 0.03968,-0.02883 0.06422,-0.02792 z m 1.362475,2.755662 V 40.59735 l 2.92318,2.965058 h -2.512762 c -0.222949,-0.0015 -0.403312,-0.181883 -0.404834,-0.404834 z"
     id="path1-2"
     style="fill:#ffd42a;fill-opacity:1;fill-rule:evenodd;stroke-width:0.279196" /></svg>
