<?xml version="1.0" encoding="UTF-8" standalone="no"?>
<svg
   shape-rendering="geometricPrecision"
   text-rendering="geometricPrecision"
   image-rendering="optimizeQuality"
   fill-rule="evenodd"
   clip-rule="evenodd"
   viewBox="0 0 64 63.999999"
   version="1.1"
   id="svg7"
   sodipodi:docname="svgwb.svg"
   width="64"
   height="64"
   inkscape:version="1.4 (e7c3feb100, 2024-10-09)"
   xmlns:inkscape="http://www.inkscape.org/namespaces/inkscape"
   xmlns:sodipodi="http://sodipodi.sourceforge.net/DTD/sodipodi-0.dtd"
   xmlns="http://www.w3.org/2000/svg"
   xmlns:svg="http://www.w3.org/2000/svg">
  <defs
     id="defs7" />
  <sodipodi:namedview
     id="namedview7"
     pagecolor="#ffffff"
     bordercolor="#000000"
     borderopacity="0.25"
     inkscape:showpageshadow="2"
     inkscape:pageopacity="0.0"
     inkscape:pagecheckerboard="0"
     inkscape:deskcolor="#d1d1d1"
     inkscape:zoom="4.4670577"
     inkscape:cx="66.374786"
     inkscape:cy="82.156986"
     inkscape:window-width="1920"
     inkscape:window-height="1021"
     inkscape:window-x="1920"
     inkscape:window-y="0"
     inkscape:window-maximized="1"
     inkscape:current-layer="svg7" />
  <g
     id="g7"
     transform="matrix(0.12150768,0,0,0.12150768,6.4226334,0.91803169)">
    <path
       fill="#e44b4d"
       d="M 95.705,0.014 H 294.799 L 421,136.548 v 317.555 c 0,31.54 -25.961,57.502 -57.502,57.502 H 95.705 c -31.55,0 -57.502,-25.873 -57.502,-57.502 V 57.515 c 0,-31.629 25.873,-57.501 57.502,-57.501 z"
       id="path1" />
    <path
       fill="#cd4445"
       d="m 341.028,133.408 h -0.019 L 421,188.771 v -52.066 h -54.357 c -9.458,-0.15 -17.998,-1.274 -25.615,-3.297 z"
       id="path2" />
    <path
       fill="#fbcfd0"
       d="M 294.8,0 421,136.533 v 0.172 H 366.643 C 321.575,135.987 297.313,113.308 294.8,75.321 Z"
       id="path3" />
    <path
       fill="#cd4445"
       fill-rule="nonzero"
       d="M 0,431.901 V 253.404 l 0.028,-1.261 c 0.668,-16.446 14.333,-29.706 30.936,-29.706 h 7.238 v 50.589 h 342.975 c 12.862,0 23.373,10.51 23.373,23.371 v 135.504 c 0,12.83 -10.543,23.373 -23.373,23.373 H 23.373 C 10.541,455.274 0,444.75 0,431.901 Z"
       id="path4" />
    <path
       fill="#963232"
       fill-rule="nonzero"
       d="m 143.448,240.364 a 8.496,8.496 0 0 1 -8.496,-8.497 8.496,8.496 0 0 1 8.496,-8.497 h 163.176 a 8.496,8.496 0 0 1 8.496,8.497 8.496,8.496 0 0 1 -8.496,8.497 z m 0,-59.176 a 8.4965,8.4965 0 0 1 0,-16.993 h 172.304 a 8.4965,8.4965 0 1 1 0,16.993 z"
       id="path5" />
    <path
       fill="#ffffff"
       fill-rule="nonzero"
       d="m 11.329,276.171 v 154.728 c 0,7.793 6.38,14.178 14.179,14.178 h 354.667 c 7.799,0 14.178,-6.379 14.178,-14.178 V 297.405 c 0,-7.798 -6.388,-14.178 -14.178,-14.178 H 37.892 c -12.618,-0.096 -19.586,-1.638 -26.563,-7.056 z"
       id="path6" />
    <path
       fill="#1a1a1a"
       fill-rule="nonzero"
       d="m 88.584,400.132 3.669,-21.62 c 8.037,2.008 15.264,3.012 21.687,3.012 6.42,0 11.594,-0.262 15.524,-0.786 v -6.551 l -11.791,-1.049 c -10.657,-0.961 -17.974,-3.515 -21.947,-7.664 -3.976,-4.149 -5.962,-10.286 -5.962,-18.411 0,-11.181 2.423,-18.866 7.272,-23.06 4.849,-4.194 13.08,-6.29 24.698,-6.29 11.618,0 22.102,1.092 31.448,3.276 l -3.275,20.964 c -8.124,-1.31 -14.632,-1.965 -19.524,-1.965 -4.892,0 -9.04,0.219 -12.449,0.655 v 6.42 l 9.435,0.919 c 11.442,1.134 19.348,3.864 23.715,8.188 4.37,4.325 6.553,10.33 6.553,18.017 0,5.504 -0.743,10.154 -2.228,13.954 -1.484,3.8 -3.254,6.684 -5.307,8.649 -2.053,1.965 -4.956,3.472 -8.713,4.521 -3.755,1.047 -7.054,1.681 -9.893,1.899 -2.839,0.219 -6.617,0.328 -11.333,0.328 -11.357,0 -21.883,-1.135 -31.579,-3.406 z m 125.528,-80.454 h 27.646 l -20.31,81.894 h -38.26 l -20.31,-81.894 h 27.646 l 11.139,52.019 h 1.18 z m 78.092,57.785 v -3.537 h -6.682 v -20.048 h 31.577 v 43.764 c -10.394,3.93 -21.138,5.896 -32.232,5.896 -14.939,0 -25.202,-3.625 -30.793,-10.876 -2.882,-3.757 -4.892,-8.167 -6.027,-13.234 -1.136,-5.065 -1.704,-11.333 -1.704,-18.803 0,-7.469 0.591,-13.713 1.769,-18.736 1.179,-5.024 3.299,-9.413 6.356,-13.17 5.765,-7.337 16.901,-11.006 33.411,-11.006 3.408,0 7.842,0.349 13.301,1.049 5.459,0.698 9.456,1.484 11.988,2.359 l -3.93,20.047 c -7.075,-1.223 -13.475,-1.835 -19.197,-1.835 -5.72,0 -9.738,0.437 -12.054,1.31 -2.315,0.874 -3.473,2.62 -3.473,5.241 v 37.083 h 8.649 c 3.145,0 5.437,-0.328 6.878,-0.983 1.443,-0.655 2.163,-2.162 2.163,-4.521 z"
       id="path7" />
  </g>
</svg>
